<svg xmlns="http://www.w3.org/2000/svg" width="24" height="24" viewBox="0 0 24 24" fill="none">
  <path d="M19 8C19 6.4087 18.2625 4.88258 16.9497 3.75736C15.637 2.63214 13.8565 2 12 2C10.1435 2 8.36301 2.63214 7.05025 3.75736C5.7375 4.88258 5 6.4087 5 8C5 15 4 17 4 17H20C20 17 19 15 19 8Z" stroke="white" stroke-width="2" stroke-linecap="round" stroke-linejoin="round"/>
  <path d="M13.7295 21C13.5537 21.3031 13.3014 21.5547 12.9978 21.7295C12.6941 21.9044 12.3499 21.9965 11.9995 21.9965C11.6492 21.9965 11.3049 21.9044 11.0013 21.7295C10.6977 21.5547 10.4453 21.3031 10.2695 21" stroke="white" stroke-width="2" stroke-linecap="round" stroke-linejoin="round"/>
</svg>