<svg width="18" height="18" viewBox="0 0 18 18" fill="none" xmlns="http://www.w3.org/2000/svg">
<path d="M5 6C5 6.82843 4.32843 7.5 3.5 7.5C2.67157 7.5 2 6.82843 2 6C2 5.17157 2.67157 4.5 3.5 4.5C4.32843 4.5 5 5.17157 5 6Z" fill="#DCDCDC"/>
<path d="M10.5 6C10.5 6.82843 9.82843 7.5 9 7.5C8.17157 7.5 7.5 6.82843 7.5 6C7.5 5.17157 8.17157 4.5 9 4.5C9.82843 4.5 10.5 5.17157 10.5 6Z" fill="#DCDCDC"/>
<path d="M16 6C16 6.82843 15.3284 7.5 14.5 7.5C13.6716 7.5 13 6.82843 13 6C13 5.17157 13.6716 4.5 14.5 4.5C15.3284 4.5 16 5.17157 16 6Z" fill="#DCDCDC"/>
<path d="M5 12C5 12.8284 4.32843 13.5 3.5 13.5C2.67157 13.5 2 12.8284 2 12C2 11.1716 2.67157 10.5 3.5 10.5C4.32843 10.5 5 11.1716 5 12Z" fill="#DCDCDC"/>
<path d="M10.5 12C10.5 12.8284 9.82843 13.5 9 13.5C8.17157 13.5 7.5 12.8284 7.5 12C7.5 11.1716 8.17157 10.5 9 10.5C9.82843 10.5 10.5 11.1716 10.5 12Z" fill="#DCDCDC"/>
<path d="M16 12C16 12.8284 15.3284 13.5 14.5 13.5C13.6716 13.5 13 12.8284 13 12C13 11.1716 13.6716 10.5 14.5 10.5C15.3284 10.5 16 11.1716 16 12Z" fill="#DCDCDC"/>
</svg>
