<svg width="60" height="60" viewBox="0 0 60 60" fill="none" xmlns="http://www.w3.org/2000/svg">
<g id="Group" transform="translate(0, 6)">
<path id="Vector" d="M29.4395 7.82539L30.5609 3.91937C30.5609 3.91937 31.1217 -0.265646 35.3273 0.0133549L40.374 0.292356L38.9722 5.31438C38.9722 5.31438 38.4114 8.6624 35.6077 8.3834" fill="#C00C0B"/>
<path id="Vector_2" d="M20.1869 10.3351C20.1869 10.3351 8.13085 8.66109 0 18.7051L7.00936 20.9371C8.13085 15.9151 13.8449 13.0191 13.8449 13.0191C13.8449 13.0191 18.5776 10.6978 20.1869 10.3351Z" fill="#C00C0B"/>
<path id="Vector_3" d="M9.84932 11.6838C9.84932 11.6838 3.36427 14.2422 7.00913 20.9383C7.00913 20.9383 7.49979 16.544 13.8447 13.0202C13.8447 13.0202 19.3456 10.3362 20.1867 10.3362C20.1867 10.3362 15.4961 9.68334 9.84932 11.6838Z" fill="#C00C0B"/>
<path id="Vector_4" d="M43.3883 13.9961C43.3883 13.9961 45.7014 17.3106 37.0098 18.4266L40.3743 22.7735C40.3743 22.7735 46.6827 17.9356 43.3883 13.9961Z" fill="#C00C0B"/>
<path id="Vector_5" d="M35.3271 10.0586C35.3271 10.0586 51.3085 12.617 40.3739 22.7755C40.3739 22.7755 47.1029 20.3816 48.7851 17.3126C48.7851 17.3126 49.3459 16.4617 48.7851 15.0722C48.7851 15.0722 47.944 11.1746 35.3271 10.0586Z" fill="#C00C0B"/>
<path id="Vector_6" d="M12.3355 27.9129C12.3355 27.9129 16.5411 24.5649 24.9523 23.4489C24.9523 23.4489 16.9 22.2799 17.5617 13.2402C17.5617 13.2402 14.1495 15.1932 11.8421 20.578C11.8421 20.578 10.0925 25.1257 12.3355 27.9157V27.9129Z" fill="#C00C0B"/>
<g id="Group_2">
<path id="Vector_7" d="M34.7678 9.77782C34.7678 9.77782 25.5967 9.95359 22.3332 15.5838C22.3332 15.5838 19.9079 20.1009 24.9547 23.4489C24.9547 23.4489 20.4687 24.0069 17.9453 19.2639C17.9453 19.2639 21.5902 8.38281 34.7678 9.77782Z" fill="#C00C0B"/>
<path id="Vector_8" d="M17.9448 19.2653C17.9448 19.2653 16.1785 15.5909 17.342 13.3812C17.342 13.3812 23.2719 8.10529 34.7673 9.7793C34.7673 9.7793 29.4402 9.22129 24.1131 12.8483L17.9448 19.2653Z" fill="#C00C0B"/>
</g>
<path id="Vector_9" d="M3.64355 41.0254C3.64355 41.0254 5.88655 45.2104 8.69029 48.0004C8.69029 48.0004 21.5623 43.0872 20.9258 36.2266C20.9258 36.2266 9.81179 41.0254 3.64355 41.0254Z" fill="#C00C0B"/>
<path id="Vector_10" d="M12.3352 27.9141C12.3352 27.9141 20.466 39.6321 3.64355 41.0271C3.64355 41.0271 14.2978 41.3061 18.5034 39.0741C19.0641 38.7951 23.6595 37.2606 18.5034 32.3697C18.5034 32.3697 17.1015 30.9831 12.3352 27.9141Z" fill="#C00C0B"/>
<path id="Vector_11" d="M40.6736 40.4813C40.6736 40.4813 43.7381 37.6773 47.383 33.7713C47.383 33.7713 44.7587 29.0869 37.7998 25.7109C37.7998 25.7109 41.5344 37.9842 40.6736 40.4813Z" fill="#C00C0B"/>
<path id="Vector_12" d="M24.9531 23.4492C24.9531 23.4492 37.8896 24.3113 40.6737 40.4822C40.6737 40.4822 43.7382 35.7252 41.4952 30.1452C41.4952 30.1452 40.0933 26.2392 36.4485 25.1232C36.4485 25.1232 31.9625 23.1702 24.9531 23.4492Z" fill="#C00C0B"/>
<path id="Vector_13" d="M55.5133 33.4944C57.9909 33.4944 59.9993 31.4958 59.9993 29.0304C59.9993 26.565 57.9909 24.5664 55.5133 24.5664C53.0358 24.5664 51.0273 26.565 51.0273 29.0304C51.0273 31.4958 53.0358 33.4944 55.5133 33.4944Z" fill="#C00C0B"/>
</g>
</svg>
