<svg width="124" height="78" viewBox="0 0 124 78" fill="none" xmlns="http://www.w3.org/2000/svg">
<g id="Group">
<path id="Vector" d="M9.34375 59.8761L27.3981 47.7891H96.4088L114.11 59.8761" stroke="#DCDCDC" stroke-width="3" stroke-miterlimit="10"/>
<path id="Vector_2" d="M9.34375 39.1361L26.692 36.0488H96.5853H114.11" stroke="#DCDCDC" stroke-width="3" stroke-miterlimit="10"/>
<path id="Vector_3" d="M9.34375 19.7598L27.0451 25.1868H96.4088L114.11 19.7598" stroke="#DCDCDC" stroke-width="3" stroke-miterlimit="10"/>
<path id="Vector_4" d="M27.2227 8.19727L36.4215 15.5563V58.4775" stroke="#DCDCDC" stroke-width="3" stroke-miterlimit="10"/>
<path id="Vector_5" d="M44.0293 8.19727L49.6878 15.032V58.4775" stroke="#DCDCDC" stroke-width="3" stroke-miterlimit="10"/>
<path id="Vector_6" d="M62.9668 8.19727V58.4775" stroke="#DCDCDC" stroke-width="3" stroke-miterlimit="10"/>
<path id="Vector_7" d="M80.8343 8.19727L75.1758 15.3815V58.4775" stroke="#DCDCDC" stroke-width="3" stroke-miterlimit="10"/>
<path id="Vector_8" d="M96.4085 8.19727L87.0332 15.3815V58.4775" stroke="#DCDCDC" stroke-width="3" stroke-miterlimit="10"/>
<path id="Vector_9" d="M18.2773 66.6228V14.498H105.264V66.0986" stroke="#DCDCDC" stroke-width="3" stroke-miterlimit="10"/>
<path id="Vector_10" d="M114.111 8.19727L99.244 15.9058C99.244 15.9058 96.4098 17.4786 96.4098 19.7601V58.4775H27.2227" stroke="#DCDCDC" stroke-width="3" stroke-miterlimit="10"/>
<path id="Vector_11" d="M96.4085 58.4769C99.331 61.1662 106.206 67.6806 111.04 72.1853C112.982 73.8843 113.678 75.2337 116.159 75.69C117.532 75.9425 119.494 76.0687 120.926 75.9619C122.279 75.8842 121.926 75.5347 121.985 74.661C122.034 70.1368 121.946 62.8457 121.985 52.6227C122.004 36.6134 121.965 17.7013 121.985 3.78909C121.985 2.77941 122.004 2.26486 121.945 2.10953C121.916 2.03186 121.847 2.01244 121.73 2.00273C117.072 2.00273 9.58869 2.00273 2.46893 2.00273C2.16492 1.99302 1.9982 1.99302 2.00801 2.29399C1.9982 3.1095 2.00801 7.12881 2.00801 12.9539C1.9982 26.5749 1.98839 70.8164 2.03743 75.3211C2.07666 75.4473 2.16492 75.5347 2.38067 75.593C3.34174 75.7483 4.95986 75.7192 6.09745 75.7192C8.03921 75.7386 9.61811 75.6221 10.9028 74.3891C12.4327 73.0882 13.8645 71.6804 15.2766 70.2824C18.0422 67.4378 23.9655 61.9526 27.0252 58.5449C27.5548 53.9237 27.0743 36.4484 27.2312 25.973C27.0743 23.5847 27.6431 21.1867 26.8291 18.9634C26.3387 17.944 25.5934 16.9344 24.7697 16.1771C20.6312 13.4879 14.0606 10.7501 9.35332 8.21616" stroke="#DCDCDC" stroke-width="3" stroke-miterlimit="10"/>
<path id="Vector_12" d="M114.747 75.9913V10.9252C114.747 7.90582 112.227 8.19707 112.227 8.19707C112.227 8.19707 12.4619 8.43007 10.7849 8.43007C9.10797 8.43007 9.34334 11.1873 9.34334 11.1873V75.7001" stroke="#DCDCDC" stroke-width="3" stroke-miterlimit="10"/>
</g>
</svg>
