<svg width="14" height="14" viewBox="0 0 14 14" fill="none" xmlns="http://www.w3.org/2000/svg">
<g id="icon/image">
<path id="Vector" d="M11.0833 1.75H2.91667C2.27233 1.75 1.75 2.27233 1.75 2.91667V11.0833C1.75 11.7277 2.27233 12.25 2.91667 12.25H11.0833C11.7277 12.25 12.25 11.7277 12.25 11.0833V2.91667C12.25 2.27233 11.7277 1.75 11.0833 1.75Z" stroke="#8F8F8F" stroke-linecap="round" stroke-linejoin="round"/>
<path id="Vector_2" d="M4.95898 5.83398C5.44223 5.83398 5.83398 5.44223 5.83398 4.95898C5.83398 4.47574 5.44223 4.08398 4.95898 4.08398C4.47574 4.08398 4.08398 4.47574 4.08398 4.95898C4.08398 5.44223 4.47574 5.83398 4.95898 5.83398Z" stroke="#8F8F8F" stroke-linecap="round" stroke-linejoin="round"/>
<path id="Vector_3" d="M12.2493 8.75065L9.33268 5.83398L2.91602 12.2507" stroke="#8F8F8F" stroke-linecap="round" stroke-linejoin="round"/>
</g>
</svg>
