<svg xmlns="http://www.w3.org/2000/svg" width="18" height="18" viewBox="0 0 18 18" fill="none">
  <path d="M14.5 10C15.3284 10 16 9.32843 16 8.5C16 7.67157 15.3284 7 14.5 7C13.6716 7 13 7.67157 13 8.5C13 9.32843 13.6716 10 14.5 10Z" fill="#8F8F8F"/>
  <path d="M3.5 10C4.32843 10 5 9.32843 5 8.5C5 7.67157 4.32843 7 3.5 7C2.67157 7 2 7.67157 2 8.5C2 9.32843 2.67157 10 3.5 10Z" fill="#8F8F8F"/>
  <path d="M10.5 8.5C10.5 9.32843 9.82843 10 9 10C8.17157 10 7.5 9.32843 7.5 8.5C7.5 7.67157 8.17157 7 9 7C9.82843 7 10.5 7.67157 10.5 8.5Z" fill="#8F8F8F"/>
</svg>