<svg width="24" height="24" viewBox="0 0 24 24" fill="none" xmlns="http://www.w3.org/2000/svg">
<path d="M19.0691 4.92969C20.9438 6.80496 21.9969 9.34805 21.9969 11.9997C21.9969 14.6513 20.9438 17.1944 19.0691 19.0697M15.5391 8.45969C16.4764 9.39733 17.003 10.6689 17.003 11.9947C17.003 13.3205 16.4764 14.592 15.5391 15.5297" stroke="white" stroke-width="1.5" stroke-linecap="round" stroke-linejoin="round"/>
<path d="M4 4L20 20" stroke="white" stroke-width="1.5" stroke-linecap="round"/>
<path d="M6.5 9.56053L6.46875 9.58592C6.33577 9.6923 6.1703 9.74998 6 9.74998H2.75V14.25H6C6.1703 14.25 6.33577 14.3077 6.46875 14.414L10.25 17.4385V13.3105L11.75 14.8105V19C11.75 19.2882 11.5849 19.5508 11.3252 19.6758C11.0654 19.8006 10.7564 19.766 10.5312 19.5859L5.73633 15.75H2C1.58579 15.75 1.25001 15.4142 1.25 15V8.99998C1.25 8.58577 1.58579 8.24998 2 8.24998H5.18945L6.5 9.56053ZM10.5312 4.41404C10.7564 4.23394 11.0653 4.19931 11.3252 4.3242C11.5849 4.44915 11.75 4.7118 11.75 4.99998V12.6894L10.25 11.1894V6.56053L7.67773 8.61717L6.61035 7.54978L10.5312 4.41404Z" fill="white"/>
</svg>
