<svg width="113" height="156" viewBox="0 0 113 156" fill="none" xmlns="http://www.w3.org/2000/svg">
<g id="Group 102">
<rect id="Rectangle 48" x="0.5" width="112" height="80" rx="6" fill="#D9D9D9"/>
<path id="Union" d="M73.2925 22.6618C75.0575 21.4944 77.4478 21.9038 78.7173 23.6266C79.9867 25.3495 79.6694 27.7535 78.0317 29.0934L77.8696 29.2204L63.2417 39.9977L77.8676 50.7751C79.6457 52.0855 80.0253 54.5895 78.7153 56.3679C77.4049 58.1463 74.9 58.5259 73.1216 57.2155L56.4985 44.9665L39.8755 57.2155C38.097 58.5259 35.5922 58.1463 34.2817 56.3679C32.9714 54.5895 33.3512 52.0856 35.1294 50.7751L49.7544 39.9977L35.1274 29.2204L34.9653 29.0934C33.3273 27.7535 33.0103 25.3496 34.2798 23.6266C35.5494 21.9039 37.9396 21.4942 39.7046 22.6618L39.8735 22.779L56.4985 35.029L73.1235 22.779L73.2925 22.6618Z" fill="white"/>
<g id="Vector 202">
<path d="M73.1904 106.818C78.3149 110.301 84.7562 118.5 87.0267 118.5V156H86.5142H49.3612C36.5498 156 34.5 147.034 34.5 141.655V112.709C34.91 105.947 40.6495 104.085 43.468 104H64.7349C68.8345 104.205 72.0801 105.964 73.1904 106.818Z" fill="#DCDCDC"/>
<path d="M90.4324 156V118.5H100.425C102.885 118.5 103.5 120.975 103.5 122V153.182C103.5 155.436 101.45 156 100.425 156H90.4324Z" fill="#DCDCDC"/>
</g>
<rect id="Rectangle 49" x="48.5" y="80" width="15" height="24" fill="#D9D9D9"/>
</g>
</svg>
