<svg width="457" height="327" viewBox="0 0 457 327" fill="none" xmlns="http://www.w3.org/2000/svg">
<rect x="0.5" width="456" height="327" rx="15" fill="#251C21"/>
<path d="M145.566 35.56V50.248L154.782 35.56H164.19L153.678 50.584L164.19 73H155.55L148.734 57.688L145.566 62.2V73H137.79V35.56H145.566ZM175.806 35.56V73H168.03V35.56H175.806ZM188.439 55.24C188.439 62.728 189.639 66.904 194.631 66.904H195.063C198.855 66.904 200.247 64.264 200.247 60.232H208.023V60.664C208.023 69.88 203.511 73.624 194.631 73.624C184.887 73.624 180.567 68.2 180.567 55.24V53.32C180.567 40.36 184.887 34.936 194.631 34.936C203.511 34.936 208.023 38.68 208.023 48.04V49.768H200.247C200.247 44.632 199.143 41.656 195.063 41.656H194.631C189.639 41.656 188.439 45.832 188.439 53.32V55.24ZM220.378 35.56V50.248L229.594 35.56H239.002L228.49 50.584L239.002 73H230.362L223.546 57.688L220.378 62.2V73H212.602V35.56H220.378ZM241.834 59.512V52.888H254.938V59.512H241.834ZM272.964 73.624C263.268 73.624 258.708 68.2 258.708 55.24V53.32C258.708 40.36 263.268 34.936 272.964 34.936C282.708 34.936 287.268 40.36 287.268 53.32V55.24C287.268 68.2 282.708 73.624 272.964 73.624ZM272.772 66.904H273.204C278.004 66.904 279.348 62.728 279.348 55.24V53.32C279.348 45.832 278.004 41.656 273.204 41.656H272.772C267.972 41.656 266.58 45.832 266.58 53.32V55.24C266.58 62.728 267.972 66.904 272.772 66.904ZM319.229 35.56V73H311.021L298.925 49.768L299.165 57.304V73H291.821V35.56H300.029L312.077 58.792L311.837 51.256V35.56H319.229Z" fill="white"/>
<g clip-path="url(#clip0_3439_50218)">
<rect x="28.5" y="95" width="400" height="196" rx="10" fill="#4D4E50"/>
<path d="M54.78 262.82L69.2 247.7H103.78L117.36 262.82H54.78ZM50.58 194.08L65.7 208.64V242.94L50.58 256.66V194.08ZM121.84 256.66L106.72 242.24V207.8L121.84 194.08V256.66ZM54.64 120.58H117.22L103.36 135.7H69.06L54.64 120.58ZM50.16 189.18V126.6L65.28 140.18V174.9L50.16 189.18ZM121.42 126.6V189.18L106.3 175.6V141.02L121.42 126.6ZM149.953 262.82L164.373 247.7H198.953L212.533 262.82H149.953ZM145.753 194.08L160.873 208.64V242.94L145.753 256.66V194.08ZM217.013 256.66L201.893 242.24V207.8L217.013 194.08V256.66ZM149.813 120.58H212.393L198.533 135.7H164.233L149.813 120.58ZM145.333 189.18V126.6L160.453 140.18V174.9L145.333 189.18ZM216.593 126.6V189.18L201.473 175.6V141.02L216.593 126.6ZM245.125 262.82L259.545 247.7H294.125L307.705 262.82H245.125ZM240.925 194.08L256.045 208.64V242.94L240.925 256.66V194.08ZM312.185 256.66L297.065 242.24V207.8L312.185 194.08V256.66ZM244.985 120.58H307.565L293.705 135.7H259.405L244.985 120.58ZM240.505 189.18V126.6L255.625 140.18V174.9L240.505 189.18ZM311.765 126.6V189.18L296.645 175.6V141.02L311.765 126.6ZM340.298 262.82L354.718 247.7H389.298L402.878 262.82H340.298ZM336.098 194.08L351.218 208.64V242.94L336.098 256.66V194.08ZM407.358 256.66L392.238 242.24V207.8L407.358 194.08V256.66ZM340.158 120.58H402.738L388.878 135.7H354.578L340.158 120.58ZM335.678 189.18V126.6L350.798 140.18V174.9L335.678 189.18ZM406.938 126.6V189.18L391.818 175.6V141.02L406.938 126.6Z" fill="#231D1F" fill-opacity="0.8"/>
<foreignObject x="142.342" y="116.58" width="270.025" height="150.24"><div xmlns="http://www.w3.org/1999/xhtml" style="backdrop-filter:blur(2px);clip-path:url(#bgblur_1_3439_50218_clip_path);height:100%;width:100%"></div></foreignObject><path data-figma-bg-blur-radius="4" d="M218.022 256.66L202.902 242.24V207.8L218.022 194.08V256.66ZM163.002 199.12C159.735 196.507 156.422 193.94 153.062 191.42L163.002 184H201.222L211.022 191.42L201.222 199.12H163.002ZM146.342 189.18V126.6L161.462 140.18V174.9L146.342 189.18ZM217.602 126.6V189.18L202.482 175.6V141.02L217.602 126.6ZM246.135 262.82L260.555 247.7H295.135L308.715 262.82H246.135ZM241.935 194.08L257.055 208.64V242.94L241.935 256.66V194.08ZM313.195 256.66L298.075 242.24V207.8L313.195 194.08V256.66ZM245.995 120.58H308.575L294.715 135.7H260.415L245.995 120.58ZM241.515 189.18V126.6L256.635 140.18V174.9L241.515 189.18ZM312.775 126.6V189.18L297.655 175.6V141.02L312.775 126.6ZM408.367 256.66L393.247 242.24V207.8L408.367 194.08V256.66ZM353.347 199.12C350.081 196.507 346.767 193.94 343.407 191.42L353.347 184H391.567L401.367 191.42L391.567 199.12H353.347ZM336.687 189.18V126.6L351.807 140.18V174.9L336.687 189.18ZM407.947 126.6V189.18L392.827 175.6V141.02L407.947 126.6Z" fill="#F8F020"/>
</g>
<defs>
<clipPath id="bgblur_1_3439_50218_clip_path" transform="translate(-142.342 -116.58)"><path d="M218.022 256.66L202.902 242.24V207.8L218.022 194.08V256.66ZM163.002 199.12C159.735 196.507 156.422 193.94 153.062 191.42L163.002 184H201.222L211.022 191.42L201.222 199.12H163.002ZM146.342 189.18V126.6L161.462 140.18V174.9L146.342 189.18ZM217.602 126.6V189.18L202.482 175.6V141.02L217.602 126.6ZM246.135 262.82L260.555 247.7H295.135L308.715 262.82H246.135ZM241.935 194.08L257.055 208.64V242.94L241.935 256.66V194.08ZM313.195 256.66L298.075 242.24V207.8L313.195 194.08V256.66ZM245.995 120.58H308.575L294.715 135.7H260.415L245.995 120.58ZM241.515 189.18V126.6L256.635 140.18V174.9L241.515 189.18ZM312.775 126.6V189.18L297.655 175.6V141.02L312.775 126.6ZM408.367 256.66L393.247 242.24V207.8L408.367 194.08V256.66ZM353.347 199.12C350.081 196.507 346.767 193.94 343.407 191.42L353.347 184H391.567L401.367 191.42L391.567 199.12H353.347ZM336.687 189.18V126.6L351.807 140.18V174.9L336.687 189.18ZM407.947 126.6V189.18L392.827 175.6V141.02L407.947 126.6Z"/>
</clipPath><clipPath id="clip0_3439_50218">
<rect x="28.5" y="95" width="400" height="196" rx="10" fill="white"/>
</clipPath>
</defs>
</svg>
