<svg width="16" height="16" viewBox="0 0 16 16" fill="none" xmlns="http://www.w3.org/2000/svg">
<path d="M7.3946 0.460484C7.75234 0.188379 8.24766 0.188379 8.6054 0.460484L9.45493 1.10666C9.66369 1.26545 9.92648 1.33586 10.1867 1.30273L11.2455 1.16789C11.6913 1.11111 12.1203 1.35877 12.2941 1.77329L12.7067 2.75766C12.8081 2.99955 13.0004 3.19193 13.2423 3.29332L14.2267 3.70595C14.6412 3.87971 14.8889 4.30867 14.8321 4.75453L14.6973 5.81334C14.6641 6.07352 14.7346 6.33631 14.8933 6.54507L15.5395 7.3946C15.8116 7.75234 15.8116 8.24766 15.5395 8.6054L14.8933 9.45493C14.7346 9.66369 14.6641 9.92648 14.6973 10.1867L14.8321 11.2455C14.8889 11.6913 14.6412 12.1203 14.2267 12.2941L13.2423 12.7067C13.0004 12.8081 12.8081 13.0004 12.7067 13.2423L12.2941 14.2267C12.1203 14.6412 11.6913 14.8889 11.2455 14.8321L10.1867 14.6973C9.92648 14.6641 9.66369 14.7346 9.45493 14.8933L8.6054 15.5395C8.24766 15.8116 7.75234 15.8116 7.3946 15.5395L6.54507 14.8933C6.33631 14.7346 6.07352 14.6641 5.81334 14.6973L4.75453 14.8321C4.30867 14.8889 3.87971 14.6412 3.70595 14.2267L3.29332 13.2423C3.19193 13.0004 2.99955 12.8081 2.75766 12.7067L1.77329 12.294C1.35877 12.1203 1.11111 11.6913 1.16789 11.2455L1.30273 10.1867C1.33586 9.92648 1.26545 9.66369 1.10666 9.45493L0.460484 8.6054C0.188379 8.24766 0.188379 7.75234 0.460484 7.3946L1.10666 6.54507C1.26545 6.33631 1.33586 6.07352 1.30273 5.81334L1.16789 4.75453C1.11111 4.30867 1.35877 3.87971 1.77329 3.70595L2.75766 3.29332C2.99955 3.19193 3.19193 2.99955 3.29332 2.75766L3.70595 1.77329C3.87971 1.35877 4.30867 1.11111 4.75453 1.16789L5.81334 1.30273C6.07352 1.33586 6.33631 1.26545 6.54507 1.10666L7.3946 0.460484Z" fill="#C00C0B"/>
<path d="M9.92367 4.56335C10.023 4.464 10.141 4.3852 10.2708 4.33144C10.4006 4.27767 10.5397 4.25 10.6802 4.25C10.8207 4.25 10.9598 4.27767 11.0896 4.33144C11.2194 4.3852 11.3373 4.464 11.4367 4.56335C11.536 4.66269 11.6148 4.78063 11.6686 4.91043C11.7223 5.04023 11.75 5.17934 11.75 5.31984C11.75 5.46033 11.7223 5.59945 11.6686 5.72925C11.6148 5.85905 11.536 5.97698 11.4367 6.07633L6.33035 11.1826L4.25 11.75L4.81737 9.66965L9.92367 4.56335Z" fill="white" stroke="white" stroke-width="0.2" stroke-linecap="round" stroke-linejoin="round"/>
</svg>
