<svg width="45" height="36" viewBox="0 0 45 36" fill="none" xmlns="http://www.w3.org/2000/svg">
<g id="Group">
<path id="Vector" d="M22.0781 5.86899L22.9192 2.9395C22.9192 2.9395 23.3398 -0.199233 26.494 0.0100161L30.279 0.219265L29.2276 3.98575C29.2276 3.98575 28.807 6.49674 26.7043 6.28749" fill="#C00C0B"/>
<path id="Vector_2" d="M15.1401 7.75034C15.1401 7.75034 6.09809 6.49485 0 14.0278L5.25697 15.7018C6.09809 11.9353 10.3836 9.76332 10.3836 9.76332C10.3836 9.76332 13.9331 8.02237 15.1401 7.75034Z" fill="#C00C0B"/>
<path id="Vector_3" d="M7.38574 8.76282C7.38574 8.76282 2.522 10.6816 5.25562 15.7036C5.25562 15.7036 5.62361 12.4079 10.3822 9.76513C10.3822 9.76513 14.5079 7.75215 15.1387 7.75215C15.1387 7.75215 11.6208 7.26251 7.38574 8.76282Z" fill="#C00C0B"/>
<path id="Vector_4" d="M32.5417 10.4961C32.5417 10.4961 34.2765 12.982 27.7578 13.819L30.2812 17.0791C30.2812 17.0791 35.0124 13.4507 32.5417 10.4961Z" fill="#C00C0B"/>
<path id="Vector_5" d="M26.4961 7.54297C26.4961 7.54297 38.482 9.46178 30.2811 17.0805C30.2811 17.0805 35.3278 15.2852 36.5895 12.9834C36.5895 12.9834 37.01 12.3452 36.5895 11.3032C36.5895 11.3032 35.9586 8.37997 26.4961 7.54297Z" fill="#C00C0B"/>
<path id="Vector_6" d="M9.24796 20.9341C9.24796 20.9341 12.4021 18.4231 18.7105 17.5861C18.7105 17.5861 12.6713 16.7094 13.1676 9.92969C13.1676 9.92969 10.6085 11.3944 8.87787 15.4329C8.87787 15.4329 7.56573 18.8437 9.24796 20.9362V20.9341Z" fill="#C00C0B"/>
<g id="Group_2">
<path id="Vector_7" d="M26.0777 7.33092C26.0777 7.33092 19.1994 7.46275 16.7518 11.6854C16.7518 11.6854 14.9329 15.0731 18.7179 17.5841C18.7179 17.5841 15.3534 18.0026 13.4609 14.4454C13.4609 14.4454 16.1946 6.28468 26.0777 7.33092Z" fill="#C00C0B"/>
<path id="Vector_8" d="M13.4606 14.4465C13.4606 14.4465 12.1358 11.6907 13.0085 10.0334C13.0085 10.0334 17.4559 6.07653 26.0773 7.33203C26.0773 7.33203 22.082 6.91353 18.0867 9.63377L13.4606 14.4465Z" fill="#C00C0B"/>
</g>
<path id="Vector_9" d="M2.73438 30.7671C2.73438 30.7671 4.41661 33.9058 6.51939 35.9983C6.51939 35.9983 16.1733 32.3134 15.696 27.168C15.696 27.168 7.36051 30.7671 2.73438 30.7671Z" fill="#C00C0B"/>
<path id="Vector_10" d="M9.25302 20.9336C9.25302 20.9336 15.3511 29.7221 2.73438 30.7683C2.73438 30.7683 10.725 30.9776 13.8791 29.3036C14.2997 29.0943 17.7462 27.9434 13.8791 24.2753C13.8791 24.2753 12.8278 23.2353 9.25302 20.9336Z" fill="#C00C0B"/>
<path id="Vector_11" d="M30.5069 30.3589C30.5069 30.3589 32.8053 28.2559 35.5389 25.3265C35.5389 25.3265 33.5707 21.8132 28.3516 19.2812C28.3516 19.2812 31.1525 28.4861 30.5069 30.3589Z" fill="#C00C0B"/>
<path id="Vector_12" d="M18.7148 17.5869C18.7148 17.5869 28.4171 18.2334 30.5052 30.3615C30.5052 30.3615 32.8035 26.7938 31.1213 22.6088C31.1213 22.6088 30.0699 19.6794 27.3363 18.8424C27.3363 18.8424 23.9718 17.3776 18.7148 17.5869Z" fill="#C00C0B"/>
<path id="Vector_13" d="M41.634 25.1218C43.4921 25.1218 44.9985 23.6228 44.9985 21.7738C44.9985 19.9247 43.4921 18.4258 41.634 18.4258C39.7759 18.4258 38.2695 19.9247 38.2695 21.7738C38.2695 23.6228 39.7759 25.1218 41.634 25.1218Z" fill="#C00C0B"/>
</g>
</svg>
