<svg width="40" height="32" viewBox="0 0 40 32" fill="none" xmlns="http://www.w3.org/2000/svg">
<g id="Group">
<path id="Vector" d="M19.627 5.21688L20.3746 2.61289C20.3746 2.61289 20.7484 -0.177096 23.5522 0.00890319L26.9166 0.194902L25.982 3.54289C25.982 3.54289 25.6082 5.77488 23.7391 5.58888" fill="black"/>
<path id="Vector_2" d="M13.4578 6.89006C13.4578 6.89006 5.42052 5.77407 0 12.47L4.67286 13.958C5.42052 10.61 9.22984 8.67937 9.22984 8.67937C9.22984 8.67937 12.385 7.13186 13.4578 6.89006Z" fill="black"/>
<path id="Vector_3" d="M6.56619 7.78853C6.56619 7.78853 2.24286 9.49414 4.67275 13.9581C4.67275 13.9581 4.99985 11.0286 9.22972 8.67946C9.22972 8.67946 12.897 6.89015 13.4577 6.89015C13.4577 6.89015 10.3306 6.45491 6.56619 7.78853Z" fill="black"/>
<path id="Vector_4" d="M28.9261 9.33008C28.9261 9.33008 30.4682 11.5398 24.6738 12.2837L26.9168 15.1816C26.9168 15.1816 31.1224 11.9564 28.9261 9.33008Z" fill="black"/>
<path id="Vector_5" d="M23.5508 6.70508C23.5508 6.70508 34.2049 8.41069 26.9152 15.1829C26.9152 15.1829 31.4012 13.5871 32.5227 11.5411C32.5227 11.5411 32.8965 10.9738 32.5227 10.0475C32.5227 10.0475 31.9619 7.44908 23.5508 6.70508Z" fill="black"/>
<path id="Vector_6" d="M8.22302 18.6079C8.22302 18.6079 11.0267 16.3759 16.6342 15.6319C16.6342 15.6319 11.266 14.8525 11.7071 8.82617C11.7071 8.82617 9.43235 10.1282 7.89405 13.7179C7.89405 13.7179 6.7277 16.7497 8.22302 18.6097V18.6079Z" fill="black"/>
<g id="Group_2">
<path id="Vector_7" d="M23.1778 6.5179C23.1778 6.5179 17.0638 6.63507 14.8881 10.3885C14.8881 10.3885 13.2713 13.3999 16.6358 15.6319C16.6358 15.6319 13.6451 16.0039 11.9629 12.8419C11.9629 12.8419 14.3928 5.5879 23.1778 6.5179Z" fill="black"/>
<path id="Vector_8" d="M11.9632 12.8435C11.9632 12.8435 10.7857 10.3939 11.5613 8.92078C11.5613 8.92078 15.5146 5.40353 23.1781 6.51953C23.1781 6.51953 19.6267 6.14753 16.0753 8.56552L11.9632 12.8435Z" fill="black"/>
</g>
<path id="Vector_9" d="M2.42969 27.3496C2.42969 27.3496 3.925 30.1396 5.79415 31.9996C5.79415 31.9996 14.3754 28.7241 13.9511 24.1504C13.9511 24.1504 6.54181 27.3496 2.42969 27.3496Z" fill="black"/>
<path id="Vector_10" d="M8.22404 18.6094C8.22404 18.6094 13.6446 26.4213 2.42969 27.3513C2.42969 27.3513 9.53244 27.5373 12.3362 26.0493C12.71 25.8633 15.7735 24.8404 12.3362 21.5798C12.3362 21.5798 11.4016 20.6554 8.22404 18.6094Z" fill="black"/>
<path id="Vector_11" d="M27.1151 26.9874C27.1151 26.9874 29.1581 25.1181 31.588 22.5141C31.588 22.5141 29.8384 19.3912 25.1992 17.1406C25.1992 17.1406 27.6889 25.3227 27.1151 26.9874Z" fill="black"/>
<path id="Vector_12" d="M16.6348 15.6334C16.6348 15.6334 25.259 16.2082 27.1151 26.9887C27.1151 26.9887 29.158 23.8174 27.6627 20.0974C27.6627 20.0974 26.7281 17.4934 24.2983 16.7494C24.2983 16.7494 21.3076 15.4474 16.6348 15.6334Z" fill="black"/>
<path id="Vector_13" d="M37.0082 22.3289C38.6599 22.3289 39.9988 20.9965 39.9988 19.3529C39.9988 17.7093 38.6599 16.377 37.0082 16.377C35.3565 16.377 34.0176 17.7093 34.0176 19.3529C34.0176 20.9965 35.3565 22.3289 37.0082 22.3289Z" fill="black"/>
</g>
</svg>
