<svg width="280" height="62" viewBox="0 0 280 62" fill="none" xmlns="http://www.w3.org/2000/svg">
<path d="M107.522 26.7084L114.353 17.2832H122.406L113.51 28.08L118.832 44.7149H111.477L108.394 34.2697L106.151 36.9778L105.171 44.7149H98.5176L102.088 17.2832H108.742L107.515 26.7084H107.522Z" fill="black"/>
<path d="M134.942 44.7149H128.289L131.86 17.2832H138.513L134.942 44.7149Z" fill="black"/>
<path d="M153.469 31.7026C152.839 36.4856 153.118 39.4397 156.269 39.4397H156.653C159.001 39.4397 160.014 37.6813 160.332 35.2195H166.985L166.949 35.536C166.179 42.6401 162.221 45.2074 156.092 45.2074C148.737 45.2074 145.445 41.1982 146.707 31.7026L146.881 30.3662C148.14 20.8706 151.714 16.791 159.069 16.791C165.723 16.791 168.979 19.8507 168.139 26.4624L167.966 27.834H161.313C161.732 24.6688 161.486 22.5587 158.86 22.5587H158.476C155.148 22.5587 154.272 25.6184 153.643 30.3662L153.469 31.7026Z" fill="black"/>
<path d="M184.741 26.7084L191.572 17.2832H199.625L190.729 28.08L196.051 44.7149H188.696L185.613 34.2697L183.37 36.9778L182.39 44.7149H175.736L179.307 17.2832H185.96L184.734 26.7084H184.741Z" fill="black"/>
<path d="M206.945 29.5918H216.75L216.015 35.2188H206.211L206.945 29.5918Z" fill="black"/>
<path d="M247.744 30.2958L247.57 31.6323C246.308 41.1278 242.773 45.2074 235.418 45.2074C228.063 45.2074 224.771 41.1982 226.033 31.7026L226.207 30.3662C227.466 20.8706 231.04 16.791 238.396 16.791C245.751 16.791 249.007 20.8003 247.748 30.2958H247.744ZM235.975 39.4397C239.126 39.4397 240.179 36.4152 240.809 31.6323L240.982 30.2958C241.612 25.5129 241.333 22.5587 238.182 22.5587H237.799C234.647 22.5587 233.595 25.5832 232.965 30.3662L232.792 31.7026C232.162 36.4856 232.441 39.4397 235.592 39.4397H235.979H235.975Z" fill="black"/>
<path d="M276.426 44.7149H269.421L263.853 29.5923L263.329 34.8676L262.07 44.7149H255.768L259.338 17.2832H266.343L271.91 32.4058L272.402 27.1305L273.698 17.2832H280L276.429 44.7149H276.426Z" fill="black"/>
<path d="M38.1621 10.1077L39.6159 5.06248C39.6159 5.06248 40.3428 -0.343124 45.7945 0.0172499L52.3366 0.377624L50.5194 6.86435C50.5194 6.86435 49.7925 11.1888 46.158 10.8285" fill="#C00C0B"/>
<path d="M26.1683 13.35C26.1683 13.35 10.54 11.1877 0 24.1612L9.08623 27.0442C10.54 20.5575 17.9471 16.8168 17.9471 16.8168C17.9471 16.8168 24.0821 13.8185 26.1683 13.35Z" fill="#C00C0B"/>
<path d="M12.7673 15.0909C12.7673 15.0909 4.36075 18.3955 9.08559 27.0445C9.08559 27.0445 9.72163 21.3686 17.9465 16.8171C17.9465 16.8171 25.0774 13.3503 26.1677 13.3503C26.1677 13.3503 20.0872 12.507 12.7673 15.0909Z" fill="#C00C0B"/>
<path d="M56.245 18.0781C56.245 18.0781 59.2435 22.3594 47.9766 23.8009L52.338 29.4155C52.338 29.4155 60.5156 23.1666 56.245 18.0781Z" fill="#C00C0B"/>
<path d="M45.7949 12.9922C45.7949 12.9922 66.5115 16.2968 52.337 29.418C52.337 29.418 61.0598 26.326 63.2405 22.3619C63.2405 22.3619 63.9674 21.2628 63.2405 19.4681C63.2405 19.4681 62.1501 14.4337 45.7949 12.9922Z" fill="#C00C0B"/>
<path d="M15.9896 36.0536C15.9896 36.0536 21.4414 31.7291 32.3449 30.2876C32.3449 30.2876 21.9066 28.7777 22.7643 17.1016C22.7643 17.1016 18.3412 19.6242 15.35 26.5794C15.35 26.5794 13.0821 32.4535 15.9896 36.0572V36.0536Z" fill="#C00C0B"/>
<path d="M45.0706 12.6283C45.0706 12.6283 33.1822 12.8553 28.9517 20.1277C28.9517 20.1277 25.8078 25.9621 32.3499 30.2866C32.3499 30.2866 26.5347 31.0074 23.2637 24.881C23.2637 24.881 27.9885 10.8264 45.0706 12.6283Z" fill="#C00C0B"/>
<path d="M23.2625 24.8836C23.2625 24.8836 20.9727 20.1374 22.4811 17.2833C22.4811 17.2833 30.168 10.4686 45.0694 12.6309C45.0694 12.6309 38.1639 11.9101 31.2584 16.595L23.2625 24.8836Z" fill="#C00C0B"/>
<path d="M4.72266 52.9914C4.72266 52.9914 7.63025 58.397 11.2647 62.0007C11.2647 62.0007 27.9507 55.6546 27.1257 46.793C27.1257 46.793 12.7185 52.9914 4.72266 52.9914Z" fill="#C00C0B"/>
<path d="M15.9896 36.0547C15.9896 36.0547 26.5296 51.1904 4.72266 52.9922C4.72266 52.9922 18.5337 53.3526 23.9855 50.4696C24.7124 50.1093 30.6693 48.1272 23.9855 41.8099C23.9855 41.8099 22.1682 40.0188 15.9896 36.0547Z" fill="#C00C0B"/>
<path d="M52.7254 52.2872C52.7254 52.2872 56.6979 48.6654 61.4227 43.6202C61.4227 43.6202 58.0208 37.5695 49 33.209C49 33.209 53.8411 49.0618 52.7254 52.2872Z" fill="#C00C0B"/>
<path d="M32.3477 30.2891C32.3477 30.2891 49.1172 31.4027 52.7263 52.2899C52.7263 52.2899 56.6988 46.1456 53.7912 38.9381C53.7912 38.9381 51.9739 33.8929 47.2491 32.4514C47.2491 32.4514 41.4339 29.9288 32.3477 30.2891Z" fill="#C00C0B"/>
<path d="M71.9617 43.2624C75.1733 43.2624 77.7769 40.6809 77.7769 37.4964C77.7769 34.312 75.1733 31.7305 71.9617 31.7305C68.75 31.7305 66.1465 34.312 66.1465 37.4964C66.1465 40.6809 68.75 43.2624 71.9617 43.2624Z" fill="#C00C0B"/>
</svg>
