<svg width="140" height="22" viewBox="0 0 140 22" fill="none" xmlns="http://www.w3.org/2000/svg">
<path d="M6.94657 7.67789L12.2158 0.380859H18.4284L11.5655 8.73977L15.671 21.6185H9.99705L7.61918 13.5318L5.88882 15.6284L5.13248 21.6185H0L2.75463 0.380859H7.88712L6.941 7.67789H6.94657Z" fill="black"/>
<path d="M28.0983 21.6185H22.9658L25.7204 0.380859H30.8529L28.0983 21.6185Z" fill="black"/>
<path d="M42.3904 11.5446C41.9048 15.2475 42.1197 17.5347 44.5506 17.5347H44.8465C46.6578 17.5347 47.4392 16.1733 47.6848 14.2673H52.8173L52.7894 14.5124C52.1949 20.0124 49.1417 22 44.4139 22C38.7399 22 36.2002 18.896 37.1742 11.5446L37.3082 10.5099C38.2794 3.15841 41.0369 0 46.7108 0C51.8433 0 54.3551 2.36881 53.7076 7.48762L53.5736 8.5495H48.4411C48.7649 6.099 48.5751 4.46534 46.5489 4.46534H46.2531C43.6854 4.46534 43.01 6.83416 42.5244 10.5099L42.3904 11.5446Z" fill="black"/>
<path d="M66.5149 7.67789L71.7842 0.380859H77.9967L71.1339 8.73977L75.2393 21.6185H69.5654L67.1875 13.5318L65.4572 15.6284L64.7008 21.6185H59.5684L62.323 0.380859H67.4555L66.5094 7.67789H66.5149Z" fill="black"/>
<path d="M83.6437 9.91016H91.2071L90.6405 14.2666H83.0771L83.6437 9.91016Z" fill="black"/>
<path d="M115.117 10.4554L114.983 11.4901C114.009 18.8416 111.282 22 105.608 22C99.9343 22 97.3945 18.896 98.3686 11.5446L98.5025 10.5099C99.4738 3.15841 102.231 0 107.905 0C113.579 0 116.091 3.10396 115.12 10.4554H115.117ZM106.038 17.5347C108.469 17.5347 109.281 15.1931 109.767 11.4901L109.901 10.4554C110.386 6.75247 110.171 4.46534 107.74 4.46534H107.445C105.014 4.46534 104.202 6.80693 103.716 10.5099L103.582 11.5446C103.096 15.2475 103.311 17.5347 105.742 17.5347H106.041H106.038Z" fill="black"/>
<path d="M137.243 21.6185H131.84L127.544 9.91056L127.14 13.9947L126.168 21.6185H121.307L124.061 0.380859H129.464L133.76 12.0888L134.139 8.00463L135.138 0.380859H140L137.246 21.6185H137.243Z" fill="black"/>
</svg>
