<svg width="140" height="22" viewBox="0 0 140 22" fill="none" xmlns="http://www.w3.org/2000/svg">
<g id="Logo">
<path id="Vector" d="M6.94657 7.67789L12.2158 0.380859H18.4284L11.5655 8.73977L15.671 21.6185H9.99705L7.61918 13.5318L5.88882 15.6284L5.13248 21.6185H0L2.75463 0.380859H7.88712L6.941 7.67789H6.94657Z" fill="white"/>
<path id="Vector_2" d="M28.0973 21.6185H22.9648L25.7195 0.380859H30.852L28.0973 21.6185Z" fill="white"/>
<path id="Vector_3" d="M42.3904 11.5446C41.9048 15.2475 42.1197 17.5347 44.5506 17.5347H44.8465C46.6578 17.5347 47.4392 16.1733 47.6848 14.2673H52.8173L52.7894 14.5124C52.1949 20.0124 49.1417 22 44.4139 22C38.7399 22 36.2002 18.896 37.1742 11.5446L37.3082 10.5099C38.2794 3.15841 41.0369 0 46.7108 0C51.8433 0 54.3551 2.36881 53.7076 7.48762L53.5736 8.5495H48.4411C48.7649 6.099 48.5751 4.46534 46.5489 4.46534H46.2531C43.6854 4.46534 43.01 6.83416 42.5244 10.5099L42.3904 11.5446Z" fill="white"/>
<path id="Vector_4" d="M66.5149 7.67789L71.7842 0.380859H77.9967L71.1339 8.73977L75.2393 21.6185H69.5654L67.1875 13.5318L65.4572 15.6284L64.7008 21.6185H59.5684L62.323 0.380859H67.4555L66.5094 7.67789H66.5149Z" fill="white"/>
<path id="Vector_5" d="M83.6447 9.91016H91.2081L90.6415 14.2666H83.0781L83.6447 9.91016Z" fill="white"/>
<path id="Vector_6" d="M115.118 10.4554L114.984 11.4901C114.01 18.8416 111.283 22 105.609 22C99.9352 22 97.3955 18.896 98.3695 11.5446L98.5035 10.5099C99.4747 3.15841 102.232 0 107.906 0C113.58 0 116.092 3.10396 115.121 10.4554H115.118ZM106.039 17.5347C108.47 17.5347 109.282 15.1931 109.768 11.4901L109.902 10.4554C110.387 6.75247 110.172 4.46534 107.741 4.46534H107.446C105.015 4.46534 104.203 6.80693 103.717 10.5099L103.583 11.5446C103.097 15.2475 103.312 17.5347 105.743 17.5347H106.042H106.039Z" fill="white"/>
<path id="Vector_7" d="M137.243 21.6185H131.84L127.544 9.91056L127.14 13.9947L126.168 21.6185H121.307L124.061 0.380859H129.464L133.76 12.0888L134.139 8.00463L135.138 0.380859H140L137.246 21.6185H137.243Z" fill="white"/>
</g>
</svg>
