<svg xmlns="http://www.w3.org/2000/svg" width="20" height="20" viewBox="0 0 20 20" fill="none">
  <path d="M5 3.33301H11.6667C12.5507 3.33301 13.3986 3.6842 14.0237 4.30932C14.6488 4.93444 15 5.78229 15 6.66634C15 7.5504 14.6488 8.39824 14.0237 9.02336C13.3986 9.64848 12.5507 9.99967 11.6667 9.99967H5V3.33301Z" stroke="#currentColor" stroke-width="1.5" stroke-linecap="round" stroke-linejoin="round"/>
  <path d="M5 10H12.5C13.3841 10 14.2319 10.3512 14.857 10.9763C15.4821 11.6014 15.8333 12.4493 15.8333 13.3333C15.8333 14.2174 15.4821 15.0652 14.857 15.6904C14.2319 16.3155 13.3841 16.6667 12.5 16.6667H5V10Z" stroke="#currentColor" stroke-width="1.5" stroke-linecap="round" stroke-linejoin="round"/>
</svg>