<svg xmlns="http://www.w3.org/2000/svg" width="20" height="20" viewBox="0 0 20 20" fill="none">
  <path d="M6 5H17" stroke="#currentColor" stroke-width="1.5" stroke-linecap="round" stroke-linejoin="round"/>
  <path d="M6 10H17" stroke="#currentColor" stroke-width="1.5" stroke-linecap="round" stroke-linejoin="round"/>
  <path d="M6 15H17" stroke="#currentColor" stroke-width="1.5" stroke-linecap="round" stroke-linejoin="round"/>
  <path d="M4 5C4 5.55228 3.55228 6 3 6C2.44772 6 2 5.55228 2 5C2 4.44772 2.44772 4 3 4C3.55228 4 4 4.44772 4 5Z" fill="#currentColor"/>
  <path d="M4 10C4 10.5523 3.55228 11 3 11C2.44772 11 2 10.5523 2 10C2 9.44772 2.44772 9 3 9C3.55228 9 4 9.44772 4 10Z" fill="#currentColor"/>
  <path d="M4 15C4 15.5523 3.55228 16 3 16C2.44772 16 2 15.5523 2 15C2 14.4477 2.44772 14 3 14C3.55228 14 4 14.4477 4 15Z" fill="#currentColor"/>
</svg>