<svg width="20" height="20" viewBox="0 0 20 20" fill="none" xmlns="http://www.w3.org/2000/svg">
<g id="link" clip-path="url(#clip0_1613_14014)">
<path id="Vector" d="M8.33203 10.834C8.68991 11.3124 9.1465 11.7083 9.67082 11.9947C10.1952 12.2812 10.775 12.4516 11.3709 12.4942C11.9669 12.5369 12.565 12.4509 13.1248 12.2421C13.6846 12.0333 14.193 11.7065 14.6154 11.284L17.1154 8.78396C17.8744 7.99811 18.2943 6.9456 18.2848 5.85312C18.2753 4.76063 17.8371 3.71558 17.0646 2.94304C16.2921 2.17051 15.247 1.73231 14.1545 1.72281C13.062 1.71332 12.0095 2.1333 11.2237 2.89229L9.79036 4.31729" stroke="#currentColor" stroke-width="1.5" stroke-linecap="round" stroke-linejoin="round"/>
<path id="Vector_2" d="M11.6678 9.16702C11.3099 8.68858 10.8533 8.2927 10.329 8.00623C9.80469 7.71977 9.22489 7.54942 8.62893 7.50674C8.03298 7.46406 7.43482 7.55004 6.87502 7.75887C6.31522 7.96769 5.80688 8.29446 5.38448 8.71702L2.88448 11.217C2.12548 12.0029 1.70551 13.0554 1.715 14.1479C1.72449 15.2403 2.1627 16.2854 2.93523 17.0579C3.70777 17.8305 4.75282 18.2687 5.8453 18.2782C6.93779 18.2877 7.9903 17.8677 8.77614 17.1087L10.2011 15.6837" stroke="#currentColor" stroke-width="1.5" stroke-linecap="round" stroke-linejoin="round"/>
</g>
<defs>
<clipPath id="clip0_1613_14014">
<rect width="20" height="20" fill="white"/>
</clipPath>
</defs>
</svg>
