<svg width="20" height="20" viewBox="0 0 20 20" fill="none" xmlns="http://www.w3.org/2000/svg">
<g id="Frame 793">
<g id="Group 98">
<path id="Vector 201" d="M2 4.33333L3.5 3V6" stroke="#currentColor" stroke-linecap="round" stroke-linejoin="round"/>
<path id="Vector 202" d="M2 9C2 8.66667 2.24 8 3.2 8C3.46667 8 4 8 4 8.66667C4 8.88889 4 9.33333 3.2 10L2 11H4" stroke="#currentColor" stroke-linecap="round" stroke-linejoin="round"/>
<path id="Vector 203" d="M2 13.5455C2.13333 13.3636 2.56 13 3.2 13C3.46667 13 4 13.1091 4 13.5455C4 13.8182 3.76 14.3636 2.8 14.3636C3.2 14.3636 4 14.5 4 15.1818C4 15.4545 3.76 16 2.8 16C2.53333 16 2 16 2 15.4545" stroke="#currentColor" stroke-linecap="round" stroke-linejoin="round"/>
<path id="Vector 204" d="M6 5H17" stroke="#currentColor" stroke-width="1.5" stroke-linecap="round" stroke-linejoin="round"/>
<path id="Vector 205" d="M6 10H17" stroke="#currentColor" stroke-width="1.5" stroke-linecap="round" stroke-linejoin="round"/>
<path id="Vector 206" d="M6 15H17" stroke="#currentColor" stroke-width="1.5" stroke-linecap="round" stroke-linejoin="round"/>
</g>
</g>
</svg>
