<svg width="24" height="24" viewBox="0 0 24 24" fill="none" xmlns="http://www.w3.org/2000/svg">
<circle cx="12" cy="12" r="9.5" stroke="#8F8F8F" stroke-width="2"/>
<path d="M8.71875 3.46875V2.15625H15.2812V3.46875C15.2812 4.125 12.6562 5.4375 12 5.4375C11.475 5.4375 8.71875 4.125 8.71875 3.46875Z" fill="#8F8F8F"/>
<path d="M4.12219 17.2505L3.46563 17.907L8.71895 21.845L9.37188 21.1883C9.73672 20.6428 8.60872 17.6153 8.06323 17.2504C7.62684 16.9586 4.48703 16.705 4.12219 17.2505Z" fill="#8F8F8F"/>
<path d="M19.9774 17.2505L20.634 17.907L15.3807 21.845L14.7277 21.1883C14.3629 20.6428 15.4909 17.6153 16.0364 17.2504C16.4728 16.9586 19.6126 16.705 19.9774 17.2505Z" fill="#8F8F8F"/>
<path d="M19.2068 6.09845L19.8745 6.0931L22.488 12.6608L21.8317 12.6608C21.2282 12.9185 18.8082 10.6393 18.5505 10.0358C18.3443 9.55296 18.6032 6.3562 19.2068 6.09845Z" fill="#8F8F8F"/>
<path d="M4.94233 6.09889L3.99927 6.00098L1.66114 12.6612L2.31739 12.6612C2.92091 12.919 5.3409 10.6397 5.59864 10.0362C5.80484 9.5534 5.54585 6.35663 4.94233 6.09889Z" fill="#8F8F8F"/>
<path d="M11.874 8.61328C11.9429 8.56476 12.0355 8.56495 12.1045 8.61328L15.2178 10.793C15.2908 10.8443 15.3213 10.9381 15.292 11.0225L13.9912 14.7686C13.9633 14.8489 13.8877 14.9031 13.8027 14.9033H10.1768C10.0913 14.9033 10.015 14.8484 9.9873 14.7676L8.70508 11.0215C8.67635 10.9375 8.70675 10.8442 8.7793 10.793L11.874 8.61328Z" fill="#8F8F8F" stroke="#8F8F8F"/>
</svg>
