<svg width="18" height="18" viewBox="0 0 18 18" fill="none" xmlns="http://www.w3.org/2000/svg">
<circle cx="9" cy="9" r="7.375" fill="white" stroke="#8F8F8F"/>
<path d="M6.53906 2.60156V1.61719H11.4609V2.60156C11.4609 3.09375 9.49219 4.07812 9 4.07812C8.60625 4.07812 6.53906 3.09375 6.53906 2.60156Z" fill="#8F8F8F"/>
<path d="M3.09164 12.9381L2.59922 13.4305L6.53921 16.384L7.02891 15.8914C7.30254 15.4823 6.45654 13.2117 6.04742 12.9381C5.72013 12.7192 3.36527 12.529 3.09164 12.9381Z" fill="#8F8F8F"/>
<path d="M14.9826 12.9381L15.475 13.4305L11.535 16.384L11.0453 15.8914C10.7717 15.4823 11.6177 13.2117 12.0268 12.9381C12.3541 12.7192 14.7089 12.529 14.9826 12.9381Z" fill="#8F8F8F"/>
<path d="M14.4051 4.57408L14.9059 4.57007L16.866 9.49582L16.3738 9.49582C15.9211 9.68913 14.1061 7.97971 13.9128 7.52707C13.7582 7.16496 13.9524 4.76739 14.4051 4.57408Z" fill="#8F8F8F"/>
<path d="M3.70723 4.57408L3.20643 4.57007L1.24634 9.49582L1.73853 9.49582C2.19117 9.68913 4.00616 7.97971 4.19947 7.52707C4.35411 7.16496 4.15987 4.76739 3.70723 4.57408Z" fill="#8F8F8F"/>
<path d="M8.87735 6.63321C8.94625 6.58469 9.03818 6.58456 9.10721 6.63289L11.2331 8.1212C11.3063 8.17249 11.3367 8.26616 11.3073 8.35063L10.4162 10.9179C10.3882 10.9984 10.3124 11.0523 10.2272 11.0523H7.75775C7.67225 11.0523 7.59621 10.998 7.56853 10.9171L6.68992 8.34975C6.66114 8.26565 6.69132 8.17265 6.76399 8.12147L8.87735 6.63321Z" fill="#8F8F8F" stroke="#8F8F8F"/>
</svg>
