<svg width="18" height="18" viewBox="0 0 18 18" fill="none" xmlns="http://www.w3.org/2000/svg">
<g id="Property 1=red, Property 2=18px">
<circle id="Ellipse 67" cx="9" cy="9" r="7.375" fill="white" stroke="#C00C0B"/>
<path id="Vector 76" d="M6.53906 2.60156V1.61719H11.4609V2.60156C11.4609 3.09375 9.49219 4.07812 9 4.07812C8.60625 4.07812 6.53906 3.09375 6.53906 2.60156Z" fill="#C00C0B"/>
<path id="Vector 79" d="M3.09164 12.9381L2.59922 13.4305L6.53921 16.384L7.02891 15.8914C7.30254 15.4823 6.45654 13.2117 6.04742 12.9381C5.72013 12.7192 3.36527 12.529 3.09164 12.9381Z" fill="#C00C0B"/>
<path id="Vector 82" d="M14.9826 12.9381L15.475 13.4305L11.535 16.384L11.0453 15.8914C10.7717 15.4823 11.6177 13.2117 12.0268 12.9381C12.3541 12.7192 14.7089 12.529 14.9826 12.9381Z" fill="#C00C0B"/>
<path id="Vector 77" d="M14.4051 4.57408L14.9059 4.57007L16.866 9.49582L16.3738 9.49582C15.9211 9.68913 14.1061 7.97971 13.9128 7.52707C13.7582 7.16496 13.9524 4.76739 14.4051 4.57408Z" fill="#C00C0B"/>
<path id="Vector 81" d="M3.70723 4.57408L3.20643 4.57007L1.24634 9.49582L1.73853 9.49582C2.19117 9.68913 4.00616 7.97971 4.19947 7.52707C4.35411 7.16496 4.15987 4.76739 3.70723 4.57408Z" fill="#C00C0B"/>
<path id="Polygon 1" d="M8.58947 6.2244C8.83062 6.05458 9.15235 6.05414 9.39397 6.22329L11.5198 7.71161C11.7762 7.89109 11.8823 8.21894 11.7797 8.51459L10.8885 11.0819C10.7907 11.3635 10.5253 11.5523 10.2272 11.5523H7.75775C7.45851 11.5523 7.19235 11.3621 7.09546 11.079L6.21686 8.51164C6.11613 8.2173 6.22175 7.89179 6.47611 7.71267L8.58947 6.2244Z" fill="#C00C0B"/>
</g>
</svg>
