<svg width="18" height="18" viewBox="0 0 18 18" fill="none" xmlns="http://www.w3.org/2000/svg">
<g id="camera">
<path id="Vector" d="M17.5 14C17.5 14.3978 17.342 14.7794 17.0607 15.0607C16.7794 15.342 16.3978 15.5 16 15.5H2.5C2.10218 15.5 1.72064 15.342 1.43934 15.0607C1.15804 14.7794 1 14.3978 1 14V5.75C1 5.35218 1.15804 4.97064 1.43934 4.68934C1.72064 4.40804 2.10218 4.25 2.5 4.25H5.5L7 2H11.5L13 4.25H16C16.3978 4.25 16.7794 4.40804 17.0607 4.68934C17.342 4.97064 17.5 5.35218 17.5 5.75V14Z" fill="#AFAFAF" stroke="#AFAFAF" stroke-linecap="round" stroke-linejoin="round"/>
<path id="Vector_2" d="M9 12.75C10.6569 12.75 12 11.4069 12 9.75C12 8.09315 10.6569 6.75 9 6.75C7.34315 6.75 6 8.09315 6 9.75C6 11.4069 7.34315 12.75 9 12.75Z" fill="white"/>
</g>
</svg>
