<svg width="12" height="12" viewBox="0 0 12 12" fill="none" xmlns="http://www.w3.org/2000/svg">
<g id="icon/help-circle" clip-path="url(#clip0_659_4587)">
<path id="Vector" d="M6 11C8.76142 11 11 8.76142 11 6C11 3.23858 8.76142 1 6 1C3.23858 1 1 3.23858 1 6C1 8.76142 3.23858 11 6 11Z" stroke="#8F8F8F" stroke-width="0.8" stroke-linecap="round" stroke-linejoin="round"/>
<path id="Vector_2" d="M4.54492 4.50028C4.66247 4.16612 4.8945 3.88434 5.1999 3.70485C5.5053 3.52536 5.86437 3.45975 6.21351 3.51964C6.56265 3.57953 6.87933 3.76105 7.10746 4.03205C7.33559 4.30305 7.46045 4.64605 7.45992 5.00028C7.45992 6.00028 5.95992 6.50028 5.95992 6.50028" stroke="#8F8F8F" stroke-width="0.8" stroke-linecap="round" stroke-linejoin="round"/>
<path id="Vector_3" d="M6 8.5H6.005" stroke="#8F8F8F" stroke-width="0.8" stroke-linecap="round" stroke-linejoin="round"/>
</g>
<defs>
<clipPath id="clip0_659_4587">
<rect width="12" height="12" fill="white"/>
</clipPath>
</defs>
</svg>
